<svg viewBox="0 0 235 100" xmlns="http://www.w3.org/2000/svg">
  <circle fill="#EB6161" cx="15.3" cy="84.5" r="15.3"/>
  <path fill="#009191" d="M63.5 36.3c2 0 3.6 1.6 3.6 3.6l-.2 29.3c0 16.7-13.4 30.3-30.1 30.6h-.5V69.3 40c0-2 1.8-3.7 3.8-3.7h23.4zm47 0c2 0 3.6 1.6 3.6 3.6v41c0 2-1.6 3.6-3.6 3.6H87.1c-2 0-3.6-1.6-3.6-3.6V39.9c0-2 1.6-3.6 3.6-3.6h23.4zm36.8-.1h.5c15 .2 27.2 12.3 27.6 27.3v17.3c0 2-1.6 3.6-3.6 3.6H134c-2 0-3.6-1.6-3.6-3.6V39.8c0-2 1.6-3.6 3.6-3.6h13.3zM209.2 84c-12.6-.8-22.7-11.3-22.7-24.1 0-13.3 10.8-24.1 24.1-24.1 12.8 0 23.3 10 24.1 22.7v21.9c0 2-1.6 3.6-3.6 3.6h-21.9z"/>
  <circle fill="#FBCB67" cx="98.749" cy="15.3" r="15.3"/>
</svg>
