<svg height="460" viewBox="0 0 497 460" width="497" xmlns="http://www.w3.org/2000/svg"><g fill="none" transform="translate(.45 .4419)"><path d="m385.68.42808993c10.261288.41887416 20.414802 2.25976648 30.17 5.47 24.24 8.27999997 40.15 24.91999997 48.81 48.76999997 4.495571 12.1942496 6.882991 25.064672 7.06 38.06.33 30.3300001.48 60.6600001.26 91.0000001.064514 15.650766-2.840156 31.171746-8.56 45.74-10.2 25.35-28.55 41.56-55.06 48.05-23 5.63-45.95 5.25-68.46-2.53s-37.77-23.43-46.67-45.38c-3.76443-9.638847-6.274978-19.72137-7.47-30-.033892-.161277-.037284-.327475-.01-.49l45.74-9.95c.89 4.47 1.61 9.4 2.87 14.18 2.78 10.52 7.8 19.71 16.85 26.24 6.9 5 14.74 7.26 23.14 7.75 11.52.69 22.43-1.21 31.88-8.36 8.57-6.48 13.25-15.48 16.06-25.6 2.160062-8.336681 3.169421-16.929691 3-25.54 0-26.86.09-53.72-.17-80.5800001-.11-11.54-2.37-22.75-8.24-32.94-7-12.16-17.82-18.47-31.54-20.09-9.37-1.1-18.59-.34-27.33 3.49-12.46 5.47-19.46 15.62-23.28 28.25-3 9.74-3.52 19.75-3.44 29.8400001l-.000666.830029c-.012879 5.084905-.274744 5.180299-5.599334 7.119971-12.631359 4.601829-25.613498 8.176766-38.82 10.69-.73.14-1.48.18-2.41.29v-4.49c.13-9.72-.05-19.45.47-29.1400001 1-18.26 4.79-35.85 14.22-51.82 10.67-18 26.5-29.33999997 46.53-34.91999997 13.028729-3.48877253 26.540973-4.81972856 40-3.94zm-235.63 4.3c26.11 7.46999997 43.38 24.51999997 52.62 49.86999997 4.383193 12.2266797 6.783484 25.0754913 7.11 38.06.33 10.2000001.28 20.4000001.39 30.6000001 0 .54-.07 1.08-.13 2-4.2-.82-8.33-1.34-12.3-2.46-10.86-3.06-21.64-6.39-32.46-9.57-1.51-.45-2-1.23-2-2.82.1-9.23.17-18.4600001-1.7-27.5700001-2-9.8-5.48-18.9-12.47-26.33-6.55-7-14.73-10.67-24.09-12-10-1.43-19.81-.78-29.16 3.33-12.33 5.43-19.19 15.5-23.05 27.95-2.73 8.83-3.5 17.93-3.49 27.1300001 0 26.86-.08 53.72.16 80.58.1 11 2.21 21.8 7.43 31.7 7.09 13.43 18.43 20.46 33.39 22 8.714841 1.064986 17.557293-.112172 25.69-3.42 9.83-4.14 16.52-11.46 20.92-21 2.943546-6.517311 4.81757-13.466397 5.55-20.58.14-1.01.35-1.95.44-2.48l46.19 9.72c-1 5-1.82 10.35-3.09 15.63-3.62 15.07-10 28.8-20.67 40.24-11.58 12.37-26 19.65-42.44 23.06-20.15 4.17-40.26 3.95-60.1-1.81-26.23-7.62-43.51-24.83-52.76-50.32-4.5113165-12.263373-6.90541-25.204327-7.08-38.27-.33-30.33-.48-60.66-.26-91.0000001-.056365-15.5767513 2.8414883-31.0229202 8.54-45.52 10.16-25.14 28.42-41.1 54.67-47.60999997 21.083152-5.40365229 43.224872-5.09646397 64.15.89zm208.16 101.72000007 43.92 6.75-13.45 47.1c-2.72-4.79-5.25-9.23-7.93-14-42.62 21.55-87.48 34.08-135.42 33.91s-92.75-13-135.39-34.87l-8.48 14.91c-4.57-15.9-8.98-31.35-13.45-47.02l43.9-6.74-6.65 11.88c32.36 16.39 66.17 27.21 102.32 30 48.68 3.8 94.23-7.35 137.85-29.08l-3.49-6.19z" fill="#0005de"/><path d="m346.78 422.16809v5.39h27.31v13.22h-27.21v16.63h-15.15v-16.57h-30.66c-.22.72-.46 1.44-.67 2.16-2.8 9.49-9.56 14.09-19 15.13-3.72.43-7.46.43-11.41.6v-13.77c4.63-.14 9.45.36 13.09-4.12h-23.67v-13.14h26.91v-5.51h15.84v5.28h29.49v-5.3zm-57.93-78.48v6.79h26.41v8c4.27-.3 5.63-2.64 6.92-11.88l16-2.88v6.77h34.37v11.93h-18l4.06 4.73-9.66 5.52.09.37 2.8.12c7.54.35 11 3.73 11.2 11.32.15 5.55.06 11.1.06 16.65v21.71h-15.27c-.08-.78-.17-1.57-.28-2.52h-61.22l-.31 2.5h-15.32v-50.65h-9.15v-13.07c9.4-1.35 9.92-1.92 11.3-12.53zm58.77 63.47h-61.52c.06 1.13.11 2 .15 2.92l.02-.001 61.35.001zm-.07-11.52h-61.26v3.079l61.26.001zm0-12.26h-61.29v3.76h61.29zm-63.3-19.07c-2.71875 3.715625-6.349131 5.747607-10.422238 7.0933l-.422806.136802c-.283042.089624-.568081.176148-.854956.259898l.393969.014513c3.804151.135487 7.544763.135487 11.276031.135487l.142251-.002587c.195394-.006458.41125-.023194.61831-.029097l.153189-.002066.147147.003976c.238686.01276.44077.058941.549103.179774.54703.620787 1.123339.908181 1.717316 1.008467.008965.001593.017978.003117.026996.004599.012008.00174.023979.00357.035956.005326 1.311916.199524 2.707776-.481161 4.089732-.508392l-.101-.113zm51.943734-1.957786h-.04c-.731195-.02112-1.433109.464973-2.123734 1.447786-3.63087 5.178852-11.793994 8.774699-18.931632 8.743313-1.654961-.010635-3.254241-.216493-4.728368-.643313v-9.29h-8.33l4.11 4.53-9.32 5.83h49.43c-2.86-3.33-5.44-6.36-8.05-9.37-.703125-.815625-1.371094-1.22915-2.016266-1.247786zm57.356266 19.647786v-16.73h27.71v-18.63l17.51-2.94v21.54h2.61 36.44c1.939207-.055673 3.879622.05473 5.8.33 7.46 1.27 11.36 5.71 11.86 13.29.09 1.32.12 2.64.12 4 0 16.93-.18 33.87.08 50.8.14 9.32-3.84 15.94-11.56 20.64-2.19 1.33-4.47 2.52-6.72 3.75-.402256.267528-.860817.438633-1.34.5-3.17 0-6.35 0-9.65 0v-15.74c1.32-.31 2.61-.54 3.87-.92 4.57-1.37 8-5.26 8-9.81.11-16.58.05-33.17.05-49.92h-39.41v2.66c0 9.5.35 19-1.27 28.45-2 11.52-5.65 22.33-13.52 31.27-6.836327 7.975487-16.845963 12.524656-27.35 12.43-2.07 0-4.14 0-6.32 0v-16.84h3.13c8.74.26 15.15-3.75 19.76-10.91 3.589143-5.797258 5.970102-12.259862 7-19 1.62-9.29.93-18.65 1.09-28.22zm-185-35.39c2.284318.024722 4.561156.265799 6.8.72 5 1 7.72 4.35 8.57 9.25.295366 1.777807.435893 3.577894.42 5.38v28.11l.06 2.06c2.279007.247419 4.542498.621329 6.78 1.12 4.773431 1.178784 8.140613 5.443332 8.18 10.36.13 11 .17 21.94-.05 32.9-.15 7.7-4.17 13.35-10.58 17.34-2.53 1.57-5.21 2.9-7.83 4.31-.348829.229892-.745608.376974-1.16.43h-8.9v-15.15c0-.42.59-1 1.05-1.22 1.33-.58 2.74-1 4.1-1.49 3.432968-1.113469 5.758425-4.310972 5.76-7.92.21-8.32.07-16.65.07-25.29h-61.81c-2.842749.031262-5.683-.179498-8.49-.63-4.74-.85-7.31-3.78-7.07-8.57.35-6.71 1.18-13.39 1.82-20.09.23-2.41.46-4.83.81-7.23.1-.64.58-1.65 1-1.73 5.44-1 10.9-1.86 16.66-2.8-.81 8.7-1.6 17.16-2.41 25.8h45.22v-30.56h-68.25v-15c.7 0 1.37-.1 2-.1zm7.59 71.54v14.68h-84.91v-14.68zm-174.87 39.18v-14.39c.59-.18 1.23-.37 1.86-.59 4.8967547-1.461006 8.2075387-6.021529 8.08-11.13 0-10.89 0-21.79 0-32.68v-51.91l17-3v2.31 86.4c.0140386 2.564052-.1732031 5.125251-.56 7.66-.86 5.5-4.18 9.42-8.63 12.47-2.22 1.52-4.57 2.87-6.89 4.26-.4553139.306549-.982625.489212-1.53.53-3.05.09-6.05.07-9.33.07zm75.7-26.11-17.31 5.94c-7.4-22.42-14.75-44.67-22.21-67.24l15.83-5.23zm-96.35-65.09 17.49 3.33c-4.7546394 22.890088-12.0846193 45.16853-21.85 66.41l-16.26-6.45c9.75-20.19 16.13-41.33 20.62-63.29z" fill="#000"/></g></svg>